<svg width="43" height="41" viewBox="0 0 43 41" fill="none" xmlns="http://www.w3.org/2000/svg">
<path id="Vector" d="M23.65 32.8H19.35V28.7H23.65V32.8ZM21.5 0C33.368 0 43 9.184 43 20.5C43 31.816 33.368 41 21.5 41C9.632 41 0 31.816 0 20.5C0 9.184 9.632 0 21.5 0ZM21.5 36.9C30.9815 36.9 38.7 29.5405 38.7 20.5C38.7 11.4595 30.9815 4.1 21.5 4.1C12.0185 4.1 4.3 11.4595 4.3 20.5C4.3 29.5405 12.0185 36.9 21.5 36.9ZM21.5 8.2C26.2515 8.2 30.1 11.8695 30.1 16.4H25.8C25.8 14.145 23.865 12.3 21.5 12.3C19.135 12.3 17.2 14.145 17.2 16.4C17.2 20.5 23.65 19.9875 23.65 26.65H19.35C19.35 22.0375 12.9 21.525 12.9 16.4C12.9 11.8695 16.7485 8.2 21.5 8.2Z" fill="white"/>
</svg>
