<svg width="16" height="16" viewBox="0 0 16 16" fill="none" xmlns="http://www.w3.org/2000/svg">
<path d="M5.66667 9.33333H6.19333L6.38 9.15333C5.72667 8.39333 5.33333 7.40667 5.33333 6.33333C5.33333 3.94 7.27333 2 9.66667 2C12.06 2 14 3.94 14 6.33333C14 8.72667 12.06 10.6667 9.66667 10.6667C8.59333 10.6667 7.60667 10.2733 6.84667 9.62L6.66667 9.80667V10.3333L3.33333 13.66L2.34 12.6667L5.66667 9.33333ZM9.66667 9.33333C11.3267 9.33333 12.6667 7.99333 12.6667 6.33333C12.6667 4.67333 11.3267 3.33333 9.66667 3.33333C8.00667 3.33333 6.66667 4.67333 6.66667 6.33333C6.66667 7.99333 8.00667 9.33333 9.66667 9.33333Z" fill="#4F5B67"/>
</svg>
