<svg width="16" height="16" viewBox="0 0 16 16" fill="none" xmlns="http://www.w3.org/2000/svg">
<path d="M8.00008 14.6667C8.73341 14.6667 9.33341 14.0667 9.33341 13.3333H6.66675C6.66675 14.0667 7.26675 14.6667 8.00008 14.6667ZM12.0001 10.6667V7.33334C12.0001 5.28667 10.9134 3.57334 9.00008 3.12001V2.66667C9.00008 2.11334 8.55341 1.66667 8.00008 1.66667C7.44675 1.66667 7.00008 2.11334 7.00008 2.66667V3.12001C5.09341 3.57334 4.00008 5.28001 4.00008 7.33334V10.6667L2.66675 12V12.6667H13.3334V12L12.0001 10.6667ZM10.6667 11.3333H5.33341V7.33334C5.33341 5.68001 6.34008 4.33334 8.00008 4.33334C9.66008 4.33334 10.6667 5.68001 10.6667 7.33334V11.3333Z" fill="#0C1116"/>
</svg>
