<svg width="42" height="41" viewBox="0 0 42 41" fill="none" xmlns="http://www.w3.org/2000/svg">
<path id="Vector" d="M4.95452 22.509C4.86816 21.853 4.80339 21.197 4.80339 20.5C4.80339 19.803 4.86816 19.147 4.95452 18.491L0.399212 15.1085C-0.0109825 14.801 -0.118923 14.2475 0.140144 13.7965L4.45797 6.7035C4.65227 6.3755 5.01929 6.191 5.40789 6.191C5.53743 6.191 5.66696 6.2115 5.77491 6.2525L11.1506 8.3025C12.2732 7.4825 13.4822 6.806 14.7992 6.2935L15.6195 0.861C15.6843 0.369 16.1377 0 16.6774 0H25.3131C25.8528 0 26.3062 0.369 26.3709 0.861L27.1913 6.2935C28.5082 6.806 29.7172 7.503 30.8399 8.3025L36.2156 6.2525C36.3451 6.2115 36.4746 6.191 36.6042 6.191C36.9712 6.191 37.3382 6.3755 37.5325 6.7035L41.8503 13.7965C42.131 14.2475 42.0014 14.801 41.5912 15.1085L37.0359 18.491C37.1223 19.147 37.1871 19.8235 37.1871 20.5C37.1871 21.1765 37.1223 21.853 37.0359 22.509L41.5912 25.8915C42.0014 26.199 42.1094 26.7525 41.8503 27.2035L37.5325 34.2965C37.3382 34.6245 36.9712 34.809 36.5826 34.809C36.453 34.809 36.3235 34.7885 36.2156 34.7475L30.8399 32.6975C29.7172 33.5175 28.5082 34.194 27.1913 34.7065L26.3709 40.139C26.3062 40.631 25.8528 41 25.3131 41H16.6774C16.1377 41 15.6843 40.631 15.6195 40.139L14.7992 34.7065C13.4822 34.194 12.2732 33.497 11.1506 32.6975L5.77491 34.7475C5.64537 34.7885 5.51583 34.809 5.3863 34.809C5.01929 34.809 4.65227 34.6245 4.45797 34.2965L0.140144 27.2035C-0.118923 26.7525 -0.0109825 26.199 0.399212 25.8915L4.95452 22.509ZM9.22916 19.0035C9.1428 19.639 9.12122 20.0695 9.12122 20.5C9.12122 20.9305 9.16439 21.3815 9.22916 21.9965L9.53141 24.313L7.60998 25.748L5.27835 27.47L6.78959 29.9505L9.53141 28.905L11.7767 28.044L13.7197 29.438C14.648 30.094 15.5332 30.586 16.4183 30.9345L18.7068 31.816L19.0522 34.1325L19.484 36.9H22.5065L22.9167 34.1325L23.2621 31.816L25.5505 30.9345C26.4789 30.5655 27.3424 30.094 28.206 29.479L30.1706 28.044L32.4591 28.9255L35.2009 29.971L36.7121 27.4905L34.3805 25.7685L32.4591 24.3335L32.7613 22.017C32.8261 21.3815 32.8692 20.91 32.8692 20.5C32.8692 20.09 32.8261 19.6185 32.7613 19.0035L32.4591 16.687L34.3805 15.252L36.7121 13.53L35.2009 11.0495L32.4591 12.095L30.2138 12.956L28.2708 11.562C27.3424 10.906 26.4573 10.414 25.5721 10.0655L23.2837 9.184L22.9383 6.8675L22.5065 4.1H19.5056L19.0954 6.8675L18.75 9.184L16.4615 10.0655C15.5332 10.4345 14.6696 10.906 13.8061 11.521L11.8414 12.956L9.553 12.0745L6.81118 11.029L5.29994 13.5095L7.60998 15.252L9.53141 16.687L9.22916 19.0035ZM20.9952 12.3C25.7664 12.3 29.6309 15.9695 29.6309 20.5C29.6309 25.0305 25.7664 28.7 20.9952 28.7C16.224 28.7 12.3596 25.0305 12.3596 20.5C12.3596 15.9695 16.224 12.3 20.9952 12.3ZM20.9952 24.6C23.37 24.6 25.3131 22.755 25.3131 20.5C25.3131 18.245 23.37 16.4 20.9952 16.4C18.6204 16.4 16.6774 18.245 16.6774 20.5C16.6774 22.755 18.6204 24.6 20.9952 24.6Z" fill="white"/>
</svg>
